<svg width="32" height="32" viewBox="0 0 32 32" fill="none" xmlns="http://www.w3.org/2000/svg">
<path fill-rule="evenodd" clip-rule="evenodd" d="M27.666 9.33301C27.666 9.88529 27.2183 10.333 26.666 10.333L5.33268 10.333C4.7804 10.333 4.33268 9.88529 4.33268 9.33301C4.33268 8.78072 4.7804 8.33301 5.33268 8.33301L26.666 8.33301C27.2183 8.33301 27.666 8.78072 27.666 9.33301Z" fill="#5E5E5E"/>
<path fill-rule="evenodd" clip-rule="evenodd" d="M27.666 16C27.666 16.5523 27.2183 17 26.666 17L5.33268 17C4.7804 17 4.33268 16.5523 4.33268 16C4.33268 15.4477 4.7804 15 5.33268 15L26.666 15C27.2183 15 27.666 15.4477 27.666 16Z" fill="#5E5E5E"/>
<path fill-rule="evenodd" clip-rule="evenodd" d="M27.666 22.667C27.666 23.2193 27.2183 23.667 26.666 23.667L5.33268 23.667C4.7804 23.667 4.33268 23.2193 4.33268 22.667C4.33268 22.1147 4.7804 21.667 5.33268 21.667L26.666 21.667C27.2183 21.667 27.666 22.1147 27.666 22.667Z" fill="#5E5E5E"/>
</svg>
