<svg width="20" height="20" viewBox="0 0 20 20" fill="none" xmlns="http://www.w3.org/2000/svg">
<circle cx="10" cy="10" r="10" fill="#6A0BFF"/>
<path fill-rule="evenodd" clip-rule="evenodd" d="M10 4.625C8.68832 4.625 7.625 5.68832 7.625 7C7.625 8.31168 8.68832 9.375 10 9.375C11.3117 9.375 12.375 8.31168 12.375 7C12.375 5.68832 11.3117 4.625 10 4.625ZM8.375 7C8.375 6.10254 9.10254 5.375 10 5.375C10.8975 5.375 11.625 6.10254 11.625 7C11.625 7.89746 10.8975 8.625 10 8.625C9.10254 8.625 8.375 7.89746 8.375 7Z" fill="white"/>
<path d="M13.4278 12.2865C13.5764 12.4307 13.5799 12.6681 13.4357 12.8167L12.5191 13.7612C12.445 13.8375 12.3421 13.8788 12.2358 13.8747C12.1296 13.8707 12.03 13.8218 11.9619 13.7401L11.5452 13.2401C11.4126 13.081 11.4341 12.8445 11.5932 12.7119C11.7522 12.5793 11.9887 12.6008 12.1213 12.7599L12.2712 12.9397L12.8975 12.2944C13.0417 12.1458 13.2791 12.1422 13.4278 12.2865Z" fill="white"/>
<path fill-rule="evenodd" clip-rule="evenodd" d="M10.9554 14.8041C10.6495 14.8505 10.3294 14.875 10 14.875C8.98033 14.875 8.03876 14.6396 7.33907 14.2398C6.65 13.846 6.125 13.2449 6.125 12.5C6.125 11.7551 6.65 11.154 7.33907 10.7602C8.03876 10.3604 8.98033 10.125 10 10.125C10.9022 10.125 11.7413 10.3092 12.4059 10.6268C12.4371 10.6256 12.4685 10.625 12.5 10.625C13.8117 10.625 14.875 11.6883 14.875 13C14.875 14.3117 13.8117 15.375 12.5 15.375C11.9102 15.375 11.3706 15.16 10.9554 14.8041ZM10.875 13C10.875 12.1025 11.6025 11.375 12.5 11.375C13.3975 11.375 14.125 12.1025 14.125 13C14.125 13.8975 13.3975 14.625 12.5 14.625C11.6025 14.625 10.875 13.8975 10.875 13ZM11.2088 11.0063C10.5565 11.4297 10.125 12.1644 10.125 13C10.125 13.4015 10.2246 13.7796 10.4005 14.1112C10.2694 14.1203 10.1357 14.125 10 14.125C9.08667 14.125 8.27824 13.9127 7.71118 13.5886C7.1335 13.2585 6.875 12.8596 6.875 12.5C6.875 12.1404 7.1335 11.7415 7.71118 11.4114C8.27824 11.0873 9.08667 10.875 10 10.875C10.4306 10.875 10.8384 10.9222 11.2088 11.0063Z" fill="white"/>
<path d="M10 5.375C9.10254 5.375 8.375 6.10254 8.375 7C8.375 7.89746 9.10254 8.625 10 8.625C10.8975 8.625 11.625 7.89746 11.625 7C11.625 6.10254 10.8975 5.375 10 5.375Z" fill="white"/>
<path d="M10.125 13C10.125 12.1644 10.5565 11.4297 11.2088 11.0063C10.8384 10.9222 10.4306 10.875 10 10.875C9.08667 10.875 8.27824 11.0873 7.71118 11.4114C7.1335 11.7415 6.875 12.1404 6.875 12.5C6.875 12.8596 7.1335 13.2585 7.71118 13.5886C8.27824 13.9127 9.08667 14.125 10 14.125C10.1357 14.125 10.2694 14.1203 10.4005 14.1112C10.2246 13.7796 10.125 13.4015 10.125 13Z" fill="white"/>
</svg>
