<svg width="20" height="20" viewBox="0 0 20 20" fill="none" xmlns="http://www.w3.org/2000/svg">
<path d="M10 0C15.5228 1.28852e-07 20 4.47715 20 10C20 15.5228 15.5228 20 10 20C4.47715 20 1.28855e-07 15.5228 0 10C0 4.47715 4.47715 0 10 0ZM14.9131 6.85449C15.0808 6.18139 14.6567 5.87647 14.2168 6.07617L4.58398 9.79004C3.92677 10.0538 3.9311 10.4206 4.46484 10.584L6.93652 11.3555L12.6592 7.74512C12.9293 7.58135 13.1771 7.66998 12.9736 7.85059L8.33691 12.0352L8.16699 14.584C8.41683 14.5839 8.52749 14.4696 8.66699 14.334L9.86816 13.166L12.3672 15.0117C12.827 15.2654 13.1589 15.1342 13.2734 14.585L14.9131 6.85449Z" fill="#6A0BFF"/>
</svg>
