<svg width="20" height="20" viewBox="0 0 20 20" fill="none" xmlns="http://www.w3.org/2000/svg">
<path d="M10 0C15.5228 1.28852e-07 20 4.47715 20 10C20 15.5228 15.5228 20 10 20C4.47715 20 1.28855e-07 15.5228 0 10C0 4.47715 4.47715 0 10 0ZM10 6.33594C9.96228 6.33595 6.66035 6.33692 5.83301 6.56445C5.37404 6.6904 5.01232 7.06195 4.88965 7.5332C4.66858 8.38067 4.66701 10.1415 4.66699 10.1689C4.66699 10.1689 4.6668 11.9515 4.88965 12.8057C5.01236 13.2768 5.3741 13.6474 5.83301 13.7734C6.66007 14.001 9.96228 14.0029 10 14.0029C10 14.0029 13.3362 14.0023 14.168 13.7734C14.6267 13.6474 14.9876 13.2766 15.1104 12.8057C15.3333 11.9515 15.334 10.1689 15.334 10.1689C15.334 10.1415 15.3315 8.38062 15.1104 7.5332C14.9877 7.06202 14.6268 6.69045 14.168 6.56445C13.3362 6.33557 10 6.33594 10 6.33594Z" fill="#6A0BFF"/>
<path d="M9 11.9974V8.66406L11.6667 10.3308L9 11.9974Z" fill="#6A0BFF"/>
</svg>
